<svg version="1" xmlns="http://www.w3.org/2000/svg" width="1365.333" height="1365.333" viewBox="0 0 1024.000000 1024.000000"><path d="M471 187.1c-3 .4-8 1-11 1.4-16.2 1.9-38.9 9.4-54.8 18.2-11.7 6.4-23.4 15.4-33.7 25.7-15.6 15.7-26 32.4-32.9 52.7-5.9 17.5-7.9 30.4-7.8 50.4.1 12.7.5 17.1 2.8 31.6 1 6.7 5.6 22.3 8.9 30 8.9 21.4 22.9 41.2 43.6 62l14.5 14.6-5 2.8c-2.8 1.6-10 6.1-16.1 10-36.7 24.1-58.8 51.3-69 85.1-1.9 6.3-3.7 12.6-3.9 14.1-.3 1.4-1 4.9-1.5 7.7-2.3 12-3.5 25.7-3.5 42.6-.1 12.5.8 26.1 1.9 29.2.2.7.6 2.4.9 3.8 4.9 27.3 23 57.7 48.7 81.6 4.4 4.1 23.3 18.4 24.3 18.4.3 0 2.1 1.1 4.1 2.5 6.1 4.1 26.4 14 36.5 17.8 15.3 5.7 31.4 10.3 43.2 12.2 1.8.3 4.4.7 5.8 1 19.1 3.4 55.5 4.3 76.5 1.9 25.2-3 46.4-8.8 66.3-18 4-1.9 7.5-3.4 7.8-3.4.3 0 5.1-2.8 10.7-6.1 15.8-9.6 28.1-19.2 41.8-32.9 26.1-25.8 43.6-55 57.6-95.5 2.5-7.4 10.7-38.5 11.7-44.5.3-1.9.8-4.6 1-6 .3-1.4.7-4.1 1-6 .3-1.9.7-4.4 1-5.5.2-1.1.7-4.9 1.1-8.5.4-3.6.8-6.7 1-7 .2-.3.6-4.1 1-8.4.3-4.4.8-8.3 1.1-8.7.2-.4 9.7-.7 20.9-.7 11.3.1 20.8-.2 21.1-.5.7-.7.8-58.6.1-59.4-.4-.4-111.1-.7-143.9-.4l-6.8.1v30c0 23.3.3 30 1.3 30.1h21.4l20.1.1-.3 2.6c-.9 6-1.4 10-2 15.2-.3 3-1 7.1-1.5 9-.5 1.9-1.2 5.3-1.5 7.5-.4 2.2-.8 4.8-1.1 5.7-.3.9-.6 2.5-.8 3.5-.2 1-1.1 4.5-2 7.8-.9 3.3-1.9 7-2.1 8.1-1.4 6.2-8.5 24.5-14 35.9-26.5 54.7-73.9 89.1-131.4 95.2-8.4.9-31.9.9-39.1-.1-3-.4-7.3-.9-9.4-1.2-6-.8-22.4-5.2-28.6-7.6-19.3-7.5-37.7-19.7-49.5-32.7-2.2-2.5-4.7-5.2-5.5-6-2-2.2-9-13.4-12.2-19.6-10.3-19.9-14.8-53-10.2-76 7.3-37.5 45-75.3 89-89.4 9.8-3.1 11.8-3.6 18.3-4.7 1.8-.3 4.3-.8 5.5-1 4.6-.9 17.9-1.6 34.6-1.8l17.5-.1.1-26.8.2-26.7-15.7-.1c-26.2-.1-32.5-.8-46.9-5.5-25.3-8.2-48.9-29.7-61-55.5-3.6-7.7-7.7-20.9-9.1-29.4-6.7-39.4-.1-69.7 19.7-90.7 13.9-14.7 29.9-23.3 51.2-27.4 6.5-1.2 30.5-1.2 36.5 0 17.3 3.7 28.7 9.2 41.3 20.1 5.1 4.3 14.3 16.9 18.2 24.7 4.5 9.4 7.8 21.3 8.2 30.5l.3 6.3h66.6l-.6-8.6c-2.9-45.2-21.3-78.1-57.5-103-13-8.9-37.4-18.8-51.5-20.9-2.2-.4-4.7-.8-5.5-1-.8-.2-3.7-.7-6.5-1-2.7-.4-5.9-.9-6.9-1.2-3-.9-38.4-1-44.6-.2z"/></svg>